# xmcd
#
# Track frame offsets:
#	150
#	19265
#	40297
#	59050
#	80702
#	96470
#	116850
#	138790
#	157017
#	173902
#
# Disc length: 2586 seconds
#
# Revision: 4
# Processed by: cddbd v1.5.2PL0 Copyright (c) Steve Scherf et al.
# Submitted via: audiograbber 1.83.01
#
DISCID=900a180a
DTITLE=Parker jr., Ray - After dark
DYEAR=1987
DGENRE=Soul
TTITLE0=I don't think that man should sleep alone
TTITLE1=Over you (Duet with Natalie Cole)
TTITLE2=Lovin' you
TTITLE3=You shoulda kept a spare
TTITLE4=The past
TTITLE5=You make my nature dance
TTITLE6=Perfect lovers
TTITLE7=After midnite
TTITLE8=I love your daughter
TTITLE9=After dark
EXTD=
EXTT0=
EXTT1=
EXTT2=
EXTT3=
EXTT4=
EXTT5=
EXTT6=
EXTT7=
EXTT8=
EXTT9=
PLAYORDER=
